<?xml version="1.0" encoding="UTF-8" standalone="no"?><svg xmlns="http://www.w3.org/2000/svg" xmlns:xlink="http://www.w3.org/1999/xlink" contentStyleType="text/css" height="141px" preserveAspectRatio="none" style="width:437px;height:141px;background:#FFFFFF;" version="1.1" viewBox="0 0 437 141" width="437px" zoomAndPan="magnify"><defs/><g><g id="elem_fonctionnalite"><ellipse cx="339.8872" cy="96.5574" fill="#F1F1F1" rx="91.8872" ry="20.7774" style="stroke:#181818;stroke-width:0.5;"/><text fill="#000000" font-family="sans-serif" font-size="14" lengthAdjust="spacing" textLength="146" x="266.8872" y="99.4041">Consulter un compte</text></g><!--MD5=[526518ddf9ffd3b9d06c429d9a70ec57]
entity guichetier--><g id="elem_guichetier"><ellipse cx="177" cy="74.78" fill="#F1F1F1" rx="16" ry="16" style="stroke:#181818;stroke-width:1.5;"/><path d="M177,94.78 C181,94.78 184,94.78 188,90.78 C196,90.78 204,98.78 204,106.78 L204,110.78 C204,114.78 200,118.78 196,118.78 L158,118.78 C154,118.78 150,114.78 150,110.78 L150,106.78 C150,98.78 158,90.78 166,90.78 C170,94.78 173,94.78 177,94.78 " fill="#F1F1F1" style="stroke:#181818;stroke-width:1.5;"/><text fill="#000000" font-family="sans-serif" font-size="14" lengthAdjust="spacing" textLength="71" x="141.5" y="133.2751">Guichetier</text></g><!--MD5=[ff8250f90b990ced6bd2564acf1d7da5]
entity chef--><g id="elem_chef"><ellipse cx="56" cy="74.78" fill="#F1F1F1" rx="16" ry="16" style="stroke:#181818;stroke-width:1.5;"/><path d="M56,94.78 C60,94.78 63,94.78 67,90.78 C75,90.78 83,98.78 83,106.78 L83,110.78 C83,114.78 79,118.78 75,118.78 L37,118.78 C33,118.78 29,114.78 29,110.78 L29,106.78 C29,98.78 37,90.78 45,90.78 C49,94.78 52,94.78 56,94.78 " fill="#F1F1F1" style="stroke:#181818;stroke-width:1.5;"/><text fill="#000000" font-family="sans-serif" font-size="14" lengthAdjust="spacing" textLength="100" x="6" y="133.2751">Chef d'agence</text></g><!--MD5=[115d4863d7018ededd69deb215d8578b]
link guichetier to fonctionnalite--><g id="link_guichetier_fonctionnalite"><path d="M212.66,96.78 C222.68,96.78 232.71,96.78 242.73,96.78 " fill="none" id="guichetier-to-fonctionnalite" style="stroke:#181818;stroke-width:1.0;"/><polygon fill="#181818" points="247.97,96.78,238.97,92.78,242.97,96.78,238.97,100.78,247.97,96.78" style="stroke:#181818;stroke-width:1.0;"/></g><!--MD5=[c6eb4afcfd67f5cfac6f524e8f815556]
link chef to fonctionnalite--><g id="link_chef_fonctionnalite"><path d="M93.32,57.21 C107.16,45.21 123.83,33.55 141.5,27.28 C201.42,6 271.68,45.84 310.48,73.48 " fill="none" id="chef-to-fonctionnalite" style="stroke:#181818;stroke-width:1.0;"/><polygon fill="#181818" points="314.59,76.45,309.6139,67.9507,310.5291,73.533,304.9467,74.4481,314.59,76.45" style="stroke:#181818;stroke-width:1.0;"/></g><!--MD5=[410a58ce50ce8939e588c8b3132bd60e]
link chef to guichetier--><g id="link_chef_guichetier"><path d="M106.1,96.78 C111.14,96.78 116.18,96.78 121.21,96.78 " fill="none" id="chef-to-guichetier" style="stroke:#181818;stroke-width:1.0;"/><polygon fill="none" points="121.27,89.78,141.27,96.78,121.27,103.78,121.27,89.78" style="stroke:#181818;stroke-width:1.0;"/></g><!--MD5=[7f61e2043e5c6816453b0d1e138a9a67]
@startuml
skinparam actorStyle awesome

usecase fonctionnalite as "Consulter un compte"
actor guichetier as "Guichetier"
actor chef as "Chef d'agence"
guichetier -> fonctionnalite
chef -> fonctionnalite
chef -|> guichetier
@enduml

PlantUML version 1.2022.4(Sat Apr 09 13:29:17 UTC 2022)
(GPL source distribution)
Java Runtime: OpenJDK Runtime Environment
JVM: OpenJDK 64-Bit Server VM
Default Encoding: UTF-8
Language: en
Country: US
--></g></svg>