<?xml version="1.0" encoding="UTF-8" standalone="no"?><svg xmlns="http://www.w3.org/2000/svg" xmlns:xlink="http://www.w3.org/1999/xlink" contentStyleType="text/css" height="141px" preserveAspectRatio="none" style="width:418px;height:141px;background:#FFFFFF;" version="1.1" viewBox="0 0 418 141" width="418px" zoomAndPan="magnify"><defs/><g><g id="elem_fonctionnalite"><ellipse cx="329.788" cy="95.9976" fill="#F1F1F1" rx="82.288" ry="18.8576" style="stroke:#181818;stroke-width:0.5;"/><text fill="#000000" font-family="sans-serif" font-size="14" lengthAdjust="spacing" textLength="124" x="266.9505" y="99.1238">Modifier info client</text></g><!--MD5=[526518ddf9ffd3b9d06c429d9a70ec57]
entity guichetier--><g id="elem_guichetier"><ellipse cx="177" cy="74.14" fill="#F1F1F1" rx="16" ry="16" style="stroke:#181818;stroke-width:1.5;"/><path d="M177,94.14 C181,94.14 184,94.14 188,90.14 C196,90.14 204,98.14 204,106.14 L204,110.14 C204,114.14 200,118.14 196,118.14 L158,118.14 C154,118.14 150,114.14 150,110.14 L150,106.14 C150,98.14 158,90.14 166,90.14 C170,94.14 173,94.14 177,94.14 " fill="#F1F1F1" style="stroke:#181818;stroke-width:1.5;"/><text fill="#000000" font-family="sans-serif" font-size="14" lengthAdjust="spacing" textLength="71" x="141.5" y="132.6351">Guichetier</text></g><!--MD5=[ff8250f90b990ced6bd2564acf1d7da5]
entity chef--><g id="elem_chef"><ellipse cx="56" cy="74.14" fill="#F1F1F1" rx="16" ry="16" style="stroke:#181818;stroke-width:1.5;"/><path d="M56,94.14 C60,94.14 63,94.14 67,90.14 C75,90.14 83,98.14 83,106.14 L83,110.14 C83,114.14 79,118.14 75,118.14 L37,118.14 C33,118.14 29,114.14 29,110.14 L29,106.14 C29,98.14 37,90.14 45,90.14 C49,94.14 52,94.14 56,94.14 " fill="#F1F1F1" style="stroke:#181818;stroke-width:1.5;"/><text fill="#000000" font-family="sans-serif" font-size="14" lengthAdjust="spacing" textLength="100" x="6" y="132.6351">Chef d'agence</text></g><!--MD5=[115d4863d7018ededd69deb215d8578b]
link guichetier to fonctionnalite--><g id="link_guichetier_fonctionnalite"><path d="M212.56,96.14 C222.46,96.14 232.35,96.14 242.25,96.14 " fill="none" id="guichetier-to-fonctionnalite" style="stroke:#181818;stroke-width:1.0;"/><polygon fill="#181818" points="247.43,96.14,238.43,92.14,242.43,96.14,238.43,100.14,247.43,96.14" style="stroke:#181818;stroke-width:1.0;"/></g><!--MD5=[c6eb4afcfd67f5cfac6f524e8f815556]
link chef to fonctionnalite--><g id="link_chef_fonctionnalite"><path d="M93.32,56.57 C107.16,44.57 123.83,32.91 141.5,26.64 C199.61,6 267.37,47.02 303.73,74.38 " fill="none" id="chef-to-fonctionnalite" style="stroke:#181818;stroke-width:1.0;"/><polygon fill="#181818" points="308.01,77.64,303.279,69.0018,304.0342,74.6081,298.4279,75.3632,308.01,77.64" style="stroke:#181818;stroke-width:1.0;"/></g><!--MD5=[410a58ce50ce8939e588c8b3132bd60e]
link chef to guichetier--><g id="link_chef_guichetier"><path d="M106.1,96.14 C111.14,96.14 116.18,96.14 121.21,96.14 " fill="none" id="chef-to-guichetier" style="stroke:#181818;stroke-width:1.0;"/><polygon fill="none" points="121.27,89.14,141.27,96.14,121.27,103.14,121.27,89.14" style="stroke:#181818;stroke-width:1.0;"/></g><!--MD5=[7a8e00ba04750f84260ccb1adbe094ed]
@startuml
skinparam actorStyle awesome

usecase fonctionnalite as "Modifier info client"
actor guichetier as "Guichetier"
actor chef as "Chef d'agence"
guichetier -> fonctionnalite
chef -> fonctionnalite
chef -|> guichetier
@enduml

PlantUML version 1.2022.4(Sat Apr 09 13:29:17 UTC 2022)
(GPL source distribution)
Java Runtime: OpenJDK Runtime Environment
JVM: OpenJDK 64-Bit Server VM
Default Encoding: UTF-8
Language: en
Country: US
--></g></svg>