<?xml version="1.0" encoding="UTF-8" standalone="no"?><svg xmlns="http://www.w3.org/2000/svg" xmlns:xlink="http://www.w3.org/1999/xlink" contentStyleType="text/css" height="144px" preserveAspectRatio="none" style="width:538px;height:144px;background:#FFFFFF;" version="1.1" viewBox="0 0 538 144" width="538px" zoomAndPan="magnify"><defs/><g><g id="elem_fonctionnalite"><ellipse cx="390.0786" cy="99.4257" fill="#F1F1F1" rx="142.5786" ry="30.9157" style="stroke:#181818;stroke-width:0.5;"/><text fill="#000000" font-family="sans-serif" font-size="14" lengthAdjust="spacing" textLength="255" x="262.5786" y="102.2724">Consulter les informations d'un client</text></g><!--MD5=[526518ddf9ffd3b9d06c429d9a70ec57]
entity guichetier--><g id="elem_guichetier"><ellipse cx="177" cy="77.51" fill="#F1F1F1" rx="16" ry="16" style="stroke:#181818;stroke-width:1.5;"/><path d="M177,97.51 C181,97.51 184,97.51 188,93.51 C196,93.51 204,101.51 204,109.51 L204,113.51 C204,117.51 200,121.51 196,121.51 L158,121.51 C154,121.51 150,117.51 150,113.51 L150,109.51 C150,101.51 158,93.51 166,93.51 C170,97.51 173,97.51 177,97.51 " fill="#F1F1F1" style="stroke:#181818;stroke-width:1.5;"/><text fill="#000000" font-family="sans-serif" font-size="14" lengthAdjust="spacing" textLength="71" x="141.5" y="136.0051">Guichetier</text></g><!--MD5=[ff8250f90b990ced6bd2564acf1d7da5]
entity chef--><g id="elem_chef"><ellipse cx="56" cy="77.51" fill="#F1F1F1" rx="16" ry="16" style="stroke:#181818;stroke-width:1.5;"/><path d="M56,97.51 C60,97.51 63,97.51 67,93.51 C75,93.51 83,101.51 83,109.51 L83,113.51 C83,117.51 79,121.51 75,121.51 L37,121.51 C33,121.51 29,117.51 29,113.51 L29,109.51 C29,101.51 37,93.51 45,93.51 C49,97.51 52,97.51 56,97.51 " fill="#F1F1F1" style="stroke:#181818;stroke-width:1.5;"/><text fill="#000000" font-family="sans-serif" font-size="14" lengthAdjust="spacing" textLength="100" x="6" y="136.0051">Chef d'agence</text></g><!--MD5=[115d4863d7018ededd69deb215d8578b]
link guichetier to fonctionnalite--><g id="link_guichetier_fonctionnalite"><path d="M212.78,99.51 C222.6,99.51 232.43,99.51 242.25,99.51 " fill="none" id="guichetier-to-fonctionnalite" style="stroke:#181818;stroke-width:1.0;"/><polygon fill="#181818" points="247.39,99.51,238.39,95.51,242.39,99.51,238.39,103.51,247.39,99.51" style="stroke:#181818;stroke-width:1.0;"/></g><!--MD5=[c6eb4afcfd67f5cfac6f524e8f815556]
link chef to fonctionnalite--><g id="link_chef_fonctionnalite"><path d="M93.32,59.94 C107.16,47.94 123.83,36.28 141.5,30.01 C209.11,6 289.39,39.24 340.03,67.49 " fill="none" id="chef-to-fonctionnalite" style="stroke:#181818;stroke-width:1.0;"/><polygon fill="#181818" points="344.53,70.03,338.6666,62.1167,340.1783,67.5678,334.7271,69.0795,344.53,70.03" style="stroke:#181818;stroke-width:1.0;"/></g><!--MD5=[410a58ce50ce8939e588c8b3132bd60e]
link chef to guichetier--><g id="link_chef_guichetier"><path d="M106.1,99.51 C111.14,99.51 116.18,99.51 121.21,99.51 " fill="none" id="chef-to-guichetier" style="stroke:#181818;stroke-width:1.0;"/><polygon fill="none" points="121.27,92.51,141.27,99.51,121.27,106.51,121.27,92.51" style="stroke:#181818;stroke-width:1.0;"/></g><!--MD5=[db97ac5878eaf9592228e48d9869efbb]
@startuml
skinparam actorStyle awesome

usecase fonctionnalite as "Consulter les informations d'un client"
actor guichetier as "Guichetier"
actor chef as "Chef d'agence"
guichetier -> fonctionnalite
chef -> fonctionnalite
chef -|> guichetier
@enduml

PlantUML version 1.2022.4(Sat Apr 09 13:29:17 UTC 2022)
(GPL source distribution)
Java Runtime: OpenJDK Runtime Environment
JVM: OpenJDK 64-Bit Server VM
Default Encoding: UTF-8
Language: en
Country: US
--></g></svg>