<?xml version="1.0" encoding="UTF-8" standalone="no"?><svg xmlns="http://www.w3.org/2000/svg" xmlns:xlink="http://www.w3.org/1999/xlink" contentStyleType="text/css" height="145px" preserveAspectRatio="none" style="width:578px;height:145px;background:#FFFFFF;" version="1.1" viewBox="0 0 578 145" width="578px" zoomAndPan="magnify"><defs/><g><g id="elem_fonctionnalite"><ellipse cx="409.7982" cy="100.3996" fill="#F1F1F1" rx="162.2982" ry="34.8596" style="stroke:#181818;stroke-width:0.5;"/><text fill="#000000" font-family="sans-serif" font-size="14" lengthAdjust="spacing" textLength="296" x="261.7982" y="103.2463">Effectuer un virement de compte à compte</text></g><!--MD5=[526518ddf9ffd3b9d06c429d9a70ec57]
entity guichetier--><g id="elem_guichetier"><ellipse cx="177" cy="78.54" fill="#F1F1F1" rx="16" ry="16" style="stroke:#181818;stroke-width:1.5;"/><path d="M177,98.54 C181,98.54 184,98.54 188,94.54 C196,94.54 204,102.54 204,110.54 L204,114.54 C204,118.54 200,122.54 196,122.54 L158,122.54 C154,122.54 150,118.54 150,114.54 L150,110.54 C150,102.54 158,94.54 166,94.54 C170,98.54 173,98.54 177,98.54 " fill="#F1F1F1" style="stroke:#181818;stroke-width:1.5;"/><text fill="#000000" font-family="sans-serif" font-size="14" lengthAdjust="spacing" textLength="71" x="141.5" y="137.0351">Guichetier</text></g><!--MD5=[ff8250f90b990ced6bd2564acf1d7da5]
entity chef--><g id="elem_chef"><ellipse cx="56" cy="78.54" fill="#F1F1F1" rx="16" ry="16" style="stroke:#181818;stroke-width:1.5;"/><path d="M56,98.54 C60,98.54 63,98.54 67,94.54 C75,94.54 83,102.54 83,110.54 L83,114.54 C83,118.54 79,122.54 75,122.54 L37,122.54 C33,122.54 29,118.54 29,114.54 L29,110.54 C29,102.54 37,94.54 45,94.54 C49,98.54 52,98.54 56,98.54 " fill="#F1F1F1" style="stroke:#181818;stroke-width:1.5;"/><text fill="#000000" font-family="sans-serif" font-size="14" lengthAdjust="spacing" textLength="100" x="6" y="137.0351">Chef d'agence</text></g><!--MD5=[115d4863d7018ededd69deb215d8578b]
link guichetier to fonctionnalite--><g id="link_guichetier_fonctionnalite"><path d="M212.95,100.54 C222.67,100.54 232.4,100.54 242.12,100.54 " fill="none" id="guichetier-to-fonctionnalite" style="stroke:#181818;stroke-width:1.0;"/><polygon fill="#181818" points="247.2,100.54,238.2,96.54,242.2,100.54,238.2,104.54,247.2,100.54" style="stroke:#181818;stroke-width:1.0;"/></g><!--MD5=[c6eb4afcfd67f5cfac6f524e8f815556]
link chef to fonctionnalite--><g id="link_chef_fonctionnalite"><path d="M93.32,60.97 C107.16,48.97 123.83,37.31 141.5,31.04 C212,6 295.84,36.96 350.85,65.17 " fill="none" id="chef-to-fonctionnalite" style="stroke:#181818;stroke-width:1.0;"/><polygon fill="#181818" points="355.42,67.54,349.2664,59.8502,350.9797,65.2413,345.5886,66.9546,355.42,67.54" style="stroke:#181818;stroke-width:1.0;"/></g><!--MD5=[410a58ce50ce8939e588c8b3132bd60e]
link chef to guichetier--><g id="link_chef_guichetier"><path d="M106.1,100.54 C111.14,100.54 116.18,100.54 121.21,100.54 " fill="none" id="chef-to-guichetier" style="stroke:#181818;stroke-width:1.0;"/><polygon fill="none" points="121.27,93.54,141.27,100.54,121.27,107.54,121.27,93.54" style="stroke:#181818;stroke-width:1.0;"/></g><!--MD5=[9c368c976222947d64b61a28c8f1e170]
@startuml
skinparam actorStyle awesome

usecase fonctionnalite as "Effectuer un virement de compte à compte"
actor guichetier as "Guichetier"
actor chef as "Chef d'agence"
guichetier -> fonctionnalite
chef -> fonctionnalite
chef -|> guichetier
@enduml

PlantUML version 1.2022.4(Sat Apr 09 13:29:17 UTC 2022)
(GPL source distribution)
Java Runtime: OpenJDK Runtime Environment
JVM: OpenJDK 64-Bit Server VM
Default Encoding: UTF-8
Language: en
Country: US
--></g></svg>