<?xml version="1.0" encoding="UTF-8" standalone="no"?><svg xmlns="http://www.w3.org/2000/svg" xmlns:xlink="http://www.w3.org/1999/xlink" contentStyleType="text/css" height="88px" preserveAspectRatio="none" style="width:342px;height:88px;background:#FFFFFF;" version="1.1" viewBox="0 0 342 88" width="342px" zoomAndPan="magnify"><defs/><g><g id="elem_fonctionnalite"><ellipse cx="238.7599" cy="43.852" fill="#F1F1F1" rx="97.2599" ry="21.852" style="stroke:#181818;stroke-width:0.5;"/><text fill="#000000" font-family="sans-serif" font-size="14" lengthAdjust="spacing" textLength="158" x="159.7599" y="46.6987">Rendre inactif un client</text></g><!--MD5=[ff8250f90b990ced6bd2564acf1d7da5]
entity chef--><g id="elem_chef"><ellipse cx="56" cy="22" fill="#F1F1F1" rx="16" ry="16" style="stroke:#181818;stroke-width:1.5;"/><path d="M56,42 C60,42 63,42 67,38 C75,38 83,46 83,54 L83,58 C83,62 79,66 75,66 L37,66 C33,66 29,62 29,58 L29,54 C29,46 37,38 45,38 C49,42 52,42 56,42 " fill="#F1F1F1" style="stroke:#181818;stroke-width:1.5;"/><text fill="#000000" font-family="sans-serif" font-size="14" lengthAdjust="spacing" textLength="100" x="6" y="80.4951">Chef d'agence</text></g><!--MD5=[c6eb4afcfd67f5cfac6f524e8f815556]
link chef to fonctionnalite--><g id="link_chef_fonctionnalite"><path d="M106.04,44 C116.06,44 126.09,44 136.11,44 " fill="none" id="chef-to-fonctionnalite" style="stroke:#181818;stroke-width:1.0;"/><polygon fill="#181818" points="141.36,44,132.36,40,136.36,44,132.36,48,141.36,44" style="stroke:#181818;stroke-width:1.0;"/></g><!--MD5=[d35b3e6717af2519cdfa794003feadc0]
@startuml
skinparam actorStyle awesome

usecase fonctionnalite as "Rendre inactif un client"

actor chef as "Chef d'agence"

chef -> fonctionnalite
@enduml

PlantUML version 1.2022.4(Sat Apr 09 13:29:17 UTC 2022)
(GPL source distribution)
Java Runtime: OpenJDK Runtime Environment
JVM: OpenJDK 64-Bit Server VM
Default Encoding: UTF-8
Language: en
Country: US
--></g></svg>