<?xml version="1.0" encoding="UTF-8" standalone="no"?><svg xmlns="http://www.w3.org/2000/svg" xmlns:xlink="http://www.w3.org/1999/xlink" contentStyleType="text/css" height="145px" preserveAspectRatio="none" style="width:582px;height:145px;background:#FFFFFF;" version="1.1" viewBox="0 0 582 145" width="582px" zoomAndPan="magnify"><defs/><g><g id="elem_fonctionnalite"><ellipse cx="412.2163" cy="100.4433" fill="#F1F1F1" rx="164.7163" ry="35.3433" style="stroke:#181818;stroke-width:0.5;"/><text fill="#000000" font-family="sans-serif" font-size="14" lengthAdjust="spacing" textLength="301" x="261.7163" y="103.2899">Effecturer un virement de compte à compte</text></g><!--MD5=[526518ddf9ffd3b9d06c429d9a70ec57]
entity guichetier--><g id="elem_guichetier"><ellipse cx="177" cy="78.6" fill="#F1F1F1" rx="16" ry="16" style="stroke:#181818;stroke-width:1.5;"/><path d="M177,98.6 C181,98.6 184,98.6 188,94.6 C196,94.6 204,102.6 204,110.6 L204,114.6 C204,118.6 200,122.6 196,122.6 L158,122.6 C154,122.6 150,118.6 150,114.6 L150,110.6 C150,102.6 158,94.6 166,94.6 C170,98.6 173,98.6 177,98.6 " fill="#F1F1F1" style="stroke:#181818;stroke-width:1.5;"/><text fill="#000000" font-family="sans-serif" font-size="14" lengthAdjust="spacing" textLength="71" x="141.5" y="137.0951">Guichetier</text></g><!--MD5=[ff8250f90b990ced6bd2564acf1d7da5]
entity chef--><g id="elem_chef"><ellipse cx="56" cy="78.6" fill="#F1F1F1" rx="16" ry="16" style="stroke:#181818;stroke-width:1.5;"/><path d="M56,98.6 C60,98.6 63,98.6 67,94.6 C75,94.6 83,102.6 83,110.6 L83,114.6 C83,118.6 79,122.6 75,122.6 L37,122.6 C33,122.6 29,118.6 29,114.6 L29,110.6 C29,102.6 37,94.6 45,94.6 C49,98.6 52,98.6 56,98.6 " fill="#F1F1F1" style="stroke:#181818;stroke-width:1.5;"/><text fill="#000000" font-family="sans-serif" font-size="14" lengthAdjust="spacing" textLength="100" x="6" y="137.0951">Chef d'agence</text></g><!--MD5=[115d4863d7018ededd69deb215d8578b]
link guichetier to fonctionnalite--><g id="link_guichetier_fonctionnalite"><path d="M212.8,100.6 C222.63,100.6 232.46,100.6 242.29,100.6 " fill="none" id="guichetier-to-fonctionnalite" style="stroke:#181818;stroke-width:1.0;"/><polygon fill="#181818" points="247.43,100.6,238.43,96.6,242.43,100.6,238.43,104.6,247.43,100.6" style="stroke:#181818;stroke-width:1.0;"/></g><!--MD5=[c6eb4afcfd67f5cfac6f524e8f815556]
link chef to fonctionnalite--><g id="link_chef_fonctionnalite"><path d="M93.32,61.03 C107.16,49.03 123.83,37.37 141.5,31.1 C212.16,6 296.17,36.59 351.61,64.75 " fill="none" id="chef-to-fonctionnalite" style="stroke:#181818;stroke-width:1.0;"/><polygon fill="#181818" points="356.21,67.11,350.0269,59.4439,351.7609,64.8284,346.3764,66.5624,356.21,67.11" style="stroke:#181818;stroke-width:1.0;"/></g><!--MD5=[410a58ce50ce8939e588c8b3132bd60e]
link chef to guichetier--><g id="link_chef_guichetier"><path d="M106.1,100.6 C111.14,100.6 116.18,100.6 121.21,100.6 " fill="none" id="chef-to-guichetier" style="stroke:#181818;stroke-width:1.0;"/><polygon fill="none" points="121.27,93.6,141.27,100.6,121.27,107.6,121.27,93.6" style="stroke:#181818;stroke-width:1.0;"/></g><!--MD5=[f438f09394644d69cc1c69b09ac4e08c]
@startuml
skinparam actorStyle awesome

usecase fonctionnalite as "Effecturer un virement de compte à compte"
actor guichetier as "Guichetier"
actor chef as "Chef d'agence"
guichetier -> fonctionnalite
chef -> fonctionnalite
chef -|> guichetier
@enduml

PlantUML version 1.2022.4(Sat Apr 09 13:29:17 UTC 2022)
(GPL source distribution)
Java Runtime: OpenJDK Runtime Environment
JVM: OpenJDK 64-Bit Server VM
Default Encoding: UTF-8
Language: en
Country: US
--></g></svg>