<?xml version="1.0" encoding="UTF-8" standalone="no"?><svg xmlns="http://www.w3.org/2000/svg" xmlns:xlink="http://www.w3.org/1999/xlink" contentStyleType="text/css" height="143px" preserveAspectRatio="none" style="width:510px;height:143px;background:#FFFFFF;" version="1.1" viewBox="0 0 510 143" width="510px" zoomAndPan="magnify"><defs/><g><g id="elem_fonctionnalite"><ellipse cx="376.1587" cy="98.8717" fill="#F1F1F1" rx="128.1587" ry="28.0317" style="stroke:#181818;stroke-width:0.5;"/><text fill="#000000" font-family="sans-serif" font-size="14" lengthAdjust="spacing" textLength="154" x="299.1587" y="93.57">Simuler un emprunt et</text><text fill="#000000" font-family="sans-serif" font-size="14" lengthAdjust="spacing" textLength="178" x="287.1587" y="109.8669">une assurance d'emprunt</text></g><!--MD5=[526518ddf9ffd3b9d06c429d9a70ec57]
entity guichetier--><g id="elem_guichetier"><ellipse cx="177" cy="76.84" fill="#F1F1F1" rx="16" ry="16" style="stroke:#181818;stroke-width:1.5;"/><path d="M177,96.84 C181,96.84 184,96.84 188,92.84 C196,92.84 204,100.84 204,108.84 L204,112.84 C204,116.84 200,120.84 196,120.84 L158,120.84 C154,120.84 150,116.84 150,112.84 L150,108.84 C150,100.84 158,92.84 166,92.84 C170,96.84 173,96.84 177,96.84 " fill="#F1F1F1" style="stroke:#181818;stroke-width:1.5;"/><text fill="#000000" font-family="sans-serif" font-size="14" lengthAdjust="spacing" textLength="71" x="141.5" y="135.3351">Guichetier</text></g><!--MD5=[ff8250f90b990ced6bd2564acf1d7da5]
entity chef--><g id="elem_chef"><ellipse cx="56" cy="76.84" fill="#F1F1F1" rx="16" ry="16" style="stroke:#181818;stroke-width:1.5;"/><path d="M56,96.84 C60,96.84 63,96.84 67,92.84 C75,92.84 83,100.84 83,108.84 L83,112.84 C83,116.84 79,120.84 75,120.84 L37,120.84 C33,120.84 29,116.84 29,112.84 L29,108.84 C29,100.84 37,92.84 45,92.84 C49,96.84 52,96.84 56,96.84 " fill="#F1F1F1" style="stroke:#181818;stroke-width:1.5;"/><text fill="#000000" font-family="sans-serif" font-size="14" lengthAdjust="spacing" textLength="100" x="6" y="135.3351">Chef d'agence</text></g><!--MD5=[115d4863d7018ededd69deb215d8578b]
link guichetier to fonctionnalite--><g id="link_guichetier_fonctionnalite"><path d="M212.76,98.84 C222.71,98.84 232.67,98.84 242.62,98.84 " fill="none" id="guichetier-to-fonctionnalite" style="stroke:#181818;stroke-width:1.0;"/><polygon fill="#181818" points="247.83,98.84,238.83,94.84,242.83,98.84,238.83,102.84,247.83,98.84" style="stroke:#181818;stroke-width:1.0;"/></g><!--MD5=[c6eb4afcfd67f5cfac6f524e8f815556]
link chef to fonctionnalite--><g id="link_chef_fonctionnalite"><path d="M93.32,59.27 C107.16,47.27 123.83,35.61 141.5,29.34 C207.2,6 285.1,41.2 332.51,69.44 " fill="none" id="chef-to-fonctionnalite" style="stroke:#181818;stroke-width:1.0;"/><polygon fill="#181818" points="337,72.15,331.3722,64.0674,332.7227,69.5607,327.2294,70.9111,337,72.15" style="stroke:#181818;stroke-width:1.0;"/></g><!--MD5=[410a58ce50ce8939e588c8b3132bd60e]
link chef to guichetier--><g id="link_chef_guichetier"><path d="M106.1,98.84 C111.14,98.84 116.18,98.84 121.21,98.84 " fill="none" id="chef-to-guichetier" style="stroke:#181818;stroke-width:1.0;"/><polygon fill="none" points="121.27,91.84,141.27,98.84,121.27,105.84,121.27,91.84" style="stroke:#181818;stroke-width:1.0;"/></g><!--MD5=[c4fe0a4295960b466b9e210f1882509e]
@startuml
skinparam actorStyle awesome

usecase fonctionnalite as "Simuler un emprunt et\nune assurance d'emprunt"
actor guichetier as "Guichetier"
actor chef as "Chef d'agence"
guichetier -> fonctionnalite
chef -> fonctionnalite
chef -|> guichetier
@enduml

PlantUML version 1.2022.4(Sat Apr 09 13:29:17 UTC 2022)
(GPL source distribution)
Java Runtime: OpenJDK Runtime Environment
JVM: OpenJDK 64-Bit Server VM
Default Encoding: UTF-8
Language: en
Country: US
--></g></svg>