<?xml version="1.0" encoding="UTF-8" standalone="no"?><svg xmlns="http://www.w3.org/2000/svg" xmlns:xlink="http://www.w3.org/1999/xlink" contentStyleType="text/css" height="142px" preserveAspectRatio="none" style="width:448px;height:142px;background:#FFFFFF;" version="1.1" viewBox="0 0 448 142" width="448px" zoomAndPan="magnify"><defs/><g><g id="elem_fonctionnalite"><ellipse cx="344.7599" cy="96.932" fill="#F1F1F1" rx="97.2599" ry="21.852" style="stroke:#181818;stroke-width:0.5;"/><text fill="#000000" font-family="sans-serif" font-size="14" lengthAdjust="spacing" textLength="158" x="265.7599" y="99.7787">Consulter prélèvement</text></g><!--MD5=[526518ddf9ffd3b9d06c429d9a70ec57]
entity guichetier--><g id="elem_guichetier"><ellipse cx="177" cy="75.08" fill="#F1F1F1" rx="16" ry="16" style="stroke:#181818;stroke-width:1.5;"/><path d="M177,95.08 C181,95.08 184,95.08 188,91.08 C196,91.08 204,99.08 204,107.08 L204,111.08 C204,115.08 200,119.08 196,119.08 L158,119.08 C154,119.08 150,115.08 150,111.08 L150,107.08 C150,99.08 158,91.08 166,91.08 C170,95.08 173,95.08 177,95.08 " fill="#F1F1F1" style="stroke:#181818;stroke-width:1.5;"/><text fill="#000000" font-family="sans-serif" font-size="14" lengthAdjust="spacing" textLength="71" x="141.5" y="133.5751">Guichetier</text></g><!--MD5=[ff8250f90b990ced6bd2564acf1d7da5]
entity chef--><g id="elem_chef"><ellipse cx="56" cy="75.08" fill="#F1F1F1" rx="16" ry="16" style="stroke:#181818;stroke-width:1.5;"/><path d="M56,95.08 C60,95.08 63,95.08 67,91.08 C75,91.08 83,99.08 83,107.08 L83,111.08 C83,115.08 79,119.08 75,119.08 L37,119.08 C33,119.08 29,115.08 29,111.08 L29,107.08 C29,99.08 37,91.08 45,91.08 C49,95.08 52,95.08 56,95.08 " fill="#F1F1F1" style="stroke:#181818;stroke-width:1.5;"/><text fill="#000000" font-family="sans-serif" font-size="14" lengthAdjust="spacing" textLength="100" x="6" y="133.5751">Chef d'agence</text></g><!--MD5=[115d4863d7018ededd69deb215d8578b]
link guichetier to fonctionnalite--><g id="link_guichetier_fonctionnalite"><path d="M212.77,97.08 C222.59,97.08 232.41,97.08 242.24,97.08 " fill="none" id="guichetier-to-fonctionnalite" style="stroke:#181818;stroke-width:1.0;"/><polygon fill="#181818" points="247.37,97.08,238.37,93.08,242.37,97.08,238.37,101.08,247.37,97.08" style="stroke:#181818;stroke-width:1.0;"/></g><!--MD5=[c6eb4afcfd67f5cfac6f524e8f815556]
link chef to fonctionnalite--><g id="link_chef_fonctionnalite"><path d="M93.32,57.51 C107.16,45.51 123.83,33.85 141.5,27.58 C202.26,6 273.66,45.17 313.69,72.94 " fill="none" id="chef-to-fonctionnalite" style="stroke:#181818;stroke-width:1.0;"/><polygon fill="#181818" points="317.93,75.93,312.8527,67.4907,313.8345,73.0617,308.2635,74.0435,317.93,75.93" style="stroke:#181818;stroke-width:1.0;"/></g><!--MD5=[410a58ce50ce8939e588c8b3132bd60e]
link chef to guichetier--><g id="link_chef_guichetier"><path d="M106.1,97.08 C111.14,97.08 116.18,97.08 121.21,97.08 " fill="none" id="chef-to-guichetier" style="stroke:#181818;stroke-width:1.0;"/><polygon fill="none" points="121.27,90.08,141.27,97.08,121.27,104.08,121.27,90.08" style="stroke:#181818;stroke-width:1.0;"/></g><!--MD5=[be3bbc2d5a5c212395e8483586dcf8da]
@startuml
skinparam actorStyle awesome

usecase fonctionnalite as "Consulter prélèvement"
actor guichetier as "Guichetier"
actor chef as "Chef d'agence"
guichetier -> fonctionnalite
chef -> fonctionnalite
chef -|> guichetier
@enduml

PlantUML version 1.2022.4(Sat Apr 09 13:29:17 UTC 2022)
(GPL source distribution)
Java Runtime: OpenJDK Runtime Environment
JVM: OpenJDK 64-Bit Server VM
Default Encoding: UTF-8
Language: en
Country: US
--></g></svg>