<?xml version="1.0" encoding="UTF-8" standalone="no"?><svg xmlns="http://www.w3.org/2000/svg" xmlns:xlink="http://www.w3.org/1999/xlink" contentStyleType="text/css" height="141px" preserveAspectRatio="none" style="width:422px;height:141px;background:#FFFFFF;" version="1.1" viewBox="0 0 422 141" width="422px" zoomAndPan="magnify"><defs/><g><g id="elem_fonctionnalite"><ellipse cx="331.9263" cy="96.0053" fill="#F1F1F1" rx="84.4263" ry="19.2853" style="stroke:#181818;stroke-width:0.5;"/><text fill="#000000" font-family="sans-serif" font-size="14" lengthAdjust="spacing" textLength="129" x="267.305" y="98.8939">Créer prélèvement</text></g><!--MD5=[526518ddf9ffd3b9d06c429d9a70ec57]
entity guichetier--><g id="elem_guichetier"><ellipse cx="177" cy="74.22" fill="#F1F1F1" rx="16" ry="16" style="stroke:#181818;stroke-width:1.5;"/><path d="M177,94.22 C181,94.22 184,94.22 188,90.22 C196,90.22 204,98.22 204,106.22 L204,110.22 C204,114.22 200,118.22 196,118.22 L158,118.22 C154,118.22 150,114.22 150,110.22 L150,106.22 C150,98.22 158,90.22 166,90.22 C170,94.22 173,94.22 177,94.22 " fill="#F1F1F1" style="stroke:#181818;stroke-width:1.5;"/><text fill="#000000" font-family="sans-serif" font-size="14" lengthAdjust="spacing" textLength="71" x="141.5" y="132.7151">Guichetier</text></g><!--MD5=[ff8250f90b990ced6bd2564acf1d7da5]
entity chef--><g id="elem_chef"><ellipse cx="56" cy="74.22" fill="#F1F1F1" rx="16" ry="16" style="stroke:#181818;stroke-width:1.5;"/><path d="M56,94.22 C60,94.22 63,94.22 67,90.22 C75,90.22 83,98.22 83,106.22 L83,110.22 C83,114.22 79,118.22 75,118.22 L37,118.22 C33,118.22 29,114.22 29,110.22 L29,106.22 C29,98.22 37,90.22 45,90.22 C49,94.22 52,94.22 56,94.22 " fill="#F1F1F1" style="stroke:#181818;stroke-width:1.5;"/><text fill="#000000" font-family="sans-serif" font-size="14" lengthAdjust="spacing" textLength="100" x="6" y="132.7151">Chef d'agence</text></g><!--MD5=[115d4863d7018ededd69deb215d8578b]
link guichetier to fonctionnalite--><g id="link_guichetier_fonctionnalite"><path d="M212.72,96.22 C222.51,96.22 232.3,96.22 242.08,96.22 " fill="none" id="guichetier-to-fonctionnalite" style="stroke:#181818;stroke-width:1.0;"/><polygon fill="#181818" points="247.2,96.22,238.2,92.22,242.2,96.22,238.2,100.22,247.2,96.22" style="stroke:#181818;stroke-width:1.0;"/></g><!--MD5=[c6eb4afcfd67f5cfac6f524e8f815556]
link chef to fonctionnalite--><g id="link_chef_fonctionnalite"><path d="M93.32,56.65 C107.16,44.65 123.83,32.99 141.5,26.72 C199.84,6 267.92,46.54 304.83,73.96 " fill="none" id="chef-to-fonctionnalite" style="stroke:#181818;stroke-width:1.0;"/><polygon fill="#181818" points="309.17,77.23,304.37,68.63,305.17,74.23,299.57,75.03,309.17,77.23" style="stroke:#181818;stroke-width:1.0;"/></g><!--MD5=[410a58ce50ce8939e588c8b3132bd60e]
link chef to guichetier--><g id="link_chef_guichetier"><path d="M106.1,96.22 C111.14,96.22 116.18,96.22 121.21,96.22 " fill="none" id="chef-to-guichetier" style="stroke:#181818;stroke-width:1.0;"/><polygon fill="none" points="121.27,89.22,141.27,96.22,121.27,103.22,121.27,89.22" style="stroke:#181818;stroke-width:1.0;"/></g><!--MD5=[a2a9b82aeedd678ef56bd1a440bd9a6b]
@startuml
skinparam actorStyle awesome

usecase fonctionnalite as "Créer prélèvement"
actor guichetier as "Guichetier"
actor chef as "Chef d'agence"
guichetier -> fonctionnalite
chef -> fonctionnalite
chef -|> guichetier
@enduml

PlantUML version 1.2022.4(Sat Apr 09 13:29:17 UTC 2022)
(GPL source distribution)
Java Runtime: OpenJDK Runtime Environment
JVM: OpenJDK 64-Bit Server VM
Default Encoding: UTF-8
Language: en
Country: US
--></g></svg>