<?xml version="1.0" encoding="UTF-8" standalone="no"?><svg xmlns="http://www.w3.org/2000/svg" xmlns:xlink="http://www.w3.org/1999/xlink" contentStyleType="text/css" height="141px" preserveAspectRatio="none" style="width:423px;height:141px;background:#FFFFFF;" version="1.1" viewBox="0 0 423 141" width="423px" zoomAndPan="magnify"><defs/><g><g id="elem_fonctionnalite"><ellipse cx="332.8592" cy="96.1918" fill="#F1F1F1" rx="84.8592" ry="19.3718" style="stroke:#181818;stroke-width:0.5;"/><text fill="#000000" font-family="sans-serif" font-size="14" lengthAdjust="spacing" textLength="130" x="267.8592" y="99.0385">Débiter un compte</text></g><!--MD5=[526518ddf9ffd3b9d06c429d9a70ec57]
entity guichetier--><g id="elem_guichetier"><ellipse cx="177" cy="74.32" fill="#F1F1F1" rx="16" ry="16" style="stroke:#181818;stroke-width:1.5;"/><path d="M177,94.32 C181,94.32 184,94.32 188,90.32 C196,90.32 204,98.32 204,106.32 L204,110.32 C204,114.32 200,118.32 196,118.32 L158,118.32 C154,118.32 150,114.32 150,110.32 L150,106.32 C150,98.32 158,90.32 166,90.32 C170,94.32 173,94.32 177,94.32 " fill="#F1F1F1" style="stroke:#181818;stroke-width:1.5;"/><text fill="#000000" font-family="sans-serif" font-size="14" lengthAdjust="spacing" textLength="71" x="141.5" y="132.8151">Guichetier</text></g><!--MD5=[ff8250f90b990ced6bd2564acf1d7da5]
entity chef--><g id="elem_chef"><ellipse cx="56" cy="74.32" fill="#F1F1F1" rx="16" ry="16" style="stroke:#181818;stroke-width:1.5;"/><path d="M56,94.32 C60,94.32 63,94.32 67,90.32 C75,90.32 83,98.32 83,106.32 L83,110.32 C83,114.32 79,118.32 75,118.32 L37,118.32 C33,118.32 29,114.32 29,110.32 L29,106.32 C29,98.32 37,90.32 45,90.32 C49,94.32 52,94.32 56,94.32 " fill="#F1F1F1" style="stroke:#181818;stroke-width:1.5;"/><text fill="#000000" font-family="sans-serif" font-size="14" lengthAdjust="spacing" textLength="100" x="6" y="132.8151">Chef d'agence</text></g><!--MD5=[115d4863d7018ededd69deb215d8578b]
link guichetier to fonctionnalite--><g id="link_guichetier_fonctionnalite"><path d="M212.65,96.32 C222.66,96.32 232.67,96.32 242.67,96.32 " fill="none" id="guichetier-to-fonctionnalite" style="stroke:#181818;stroke-width:1.0;"/><polygon fill="#181818" points="247.91,96.32,238.91,92.32,242.91,96.32,238.91,100.32,247.91,96.32" style="stroke:#181818;stroke-width:1.0;"/></g><!--MD5=[c6eb4afcfd67f5cfac6f524e8f815556]
link chef to fonctionnalite--><g id="link_chef_fonctionnalite"><path d="M93.32,56.75 C107.16,44.75 123.83,33.09 141.5,26.82 C200.11,6 268.56,46.58 305.68,74.03 " fill="none" id="chef-to-fonctionnalite" style="stroke:#181818;stroke-width:1.0;"/><polygon fill="#181818" points="310.04,77.3,305.24,68.7,306.04,74.3,300.44,75.1,310.04,77.3" style="stroke:#181818;stroke-width:1.0;"/></g><!--MD5=[410a58ce50ce8939e588c8b3132bd60e]
link chef to guichetier--><g id="link_chef_guichetier"><path d="M106.1,96.32 C111.14,96.32 116.18,96.32 121.21,96.32 " fill="none" id="chef-to-guichetier" style="stroke:#181818;stroke-width:1.0;"/><polygon fill="none" points="121.27,89.32,141.27,96.32,121.27,103.32,121.27,89.32" style="stroke:#181818;stroke-width:1.0;"/></g><!--MD5=[02ff783bb0c19513bd24df78ea1f7216]
@startuml
skinparam actorStyle awesome

usecase fonctionnalite as "Débiter un compte"
actor guichetier as "Guichetier"
actor chef as "Chef d'agence"
guichetier -> fonctionnalite
chef -> fonctionnalite
chef -|> guichetier
@enduml

PlantUML version 1.2022.4(Sat Apr 09 13:29:17 UTC 2022)
(GPL source distribution)
Java Runtime: OpenJDK Runtime Environment
JVM: OpenJDK 64-Bit Server VM
Default Encoding: UTF-8
Language: en
Country: US
--></g></svg>