<?xml version="1.0" encoding="UTF-8" standalone="no"?><svg xmlns="http://www.w3.org/2000/svg" xmlns:xlink="http://www.w3.org/1999/xlink" contentStyleType="text/css" height="146px" preserveAspectRatio="none" style="width:602px;height:146px;background:#FFFFFF;" version="1.1" viewBox="0 0 602 146" width="602px" zoomAndPan="magnify"><defs/><g><g id="elem_fonctionnalite"><ellipse cx="421.9123" cy="100.8425" fill="#F1F1F1" rx="174.4123" ry="37.2825" style="stroke:#181818;stroke-width:0.5;"/><text fill="#000000" font-family="sans-serif" font-size="14" lengthAdjust="spacing" textLength="321" x="261.4123" y="103.6891">Effectuer un débit exceptionnel sur un compte</text></g><!--MD5=[526518ddf9ffd3b9d06c429d9a70ec57]
entity guichetier--><g id="elem_guichetier"><ellipse cx="177" cy="79.06" fill="#F1F1F1" rx="16" ry="16" style="stroke:#181818;stroke-width:1.5;"/><path d="M177,99.06 C181,99.06 184,99.06 188,95.06 C196,95.06 204,103.06 204,111.06 L204,115.06 C204,119.06 200,123.06 196,123.06 L158,123.06 C154,123.06 150,119.06 150,115.06 L150,111.06 C150,103.06 158,95.06 166,95.06 C170,99.06 173,99.06 177,99.06 " fill="#F1F1F1" style="stroke:#181818;stroke-width:1.5;"/><text fill="#000000" font-family="sans-serif" font-size="14" lengthAdjust="spacing" textLength="71" x="141.5" y="137.5551">Guichetier</text></g><!--MD5=[ff8250f90b990ced6bd2564acf1d7da5]
entity chef--><g id="elem_chef"><ellipse cx="56" cy="79.06" fill="#F1F1F1" rx="16" ry="16" style="stroke:#181818;stroke-width:1.5;"/><path d="M56,99.06 C60,99.06 63,99.06 67,95.06 C75,95.06 83,103.06 83,111.06 L83,115.06 C83,119.06 79,123.06 75,123.06 L37,123.06 C33,123.06 29,119.06 29,115.06 L29,111.06 C29,103.06 37,95.06 45,95.06 C49,99.06 52,99.06 56,99.06 " fill="#F1F1F1" style="stroke:#181818;stroke-width:1.5;"/><text fill="#000000" font-family="sans-serif" font-size="14" lengthAdjust="spacing" textLength="100" x="6" y="137.5551">Chef d'agence</text></g><!--MD5=[115d4863d7018ededd69deb215d8578b]
link guichetier to fonctionnalite--><g id="link_guichetier_fonctionnalite"><path d="M212.89,101.06 C222.63,101.06 232.37,101.06 242.1,101.06 " fill="none" id="guichetier-to-fonctionnalite" style="stroke:#181818;stroke-width:1.0;"/><polygon fill="#181818" points="247.2,101.06,238.2,97.06,242.2,101.06,238.2,105.06,247.2,101.06" style="stroke:#181818;stroke-width:1.0;"/></g><!--MD5=[c6eb4afcfd67f5cfac6f524e8f815556]
link chef to fonctionnalite--><g id="link_chef_fonctionnalite"><path d="M93.32,61.49 C107.16,49.49 123.83,37.83 141.5,31.56 C213.47,6 299.02,35.41 356.56,63.45 " fill="none" id="chef-to-fonctionnalite" style="stroke:#181818;stroke-width:1.0;"/><polygon fill="#181818" points="361.35,65.81,355.0503,58.2395,356.8665,63.5968,351.5091,65.4131,361.35,65.81" style="stroke:#181818;stroke-width:1.0;"/></g><!--MD5=[410a58ce50ce8939e588c8b3132bd60e]
link chef to guichetier--><g id="link_chef_guichetier"><path d="M106.1,101.06 C111.14,101.06 116.18,101.06 121.21,101.06 " fill="none" id="chef-to-guichetier" style="stroke:#181818;stroke-width:1.0;"/><polygon fill="none" points="121.27,94.06,141.27,101.06,121.27,108.06,121.27,94.06" style="stroke:#181818;stroke-width:1.0;"/></g><!--MD5=[13d2541073c665514bfdf97e82e05578]
@startuml
skinparam actorStyle awesome

usecase fonctionnalite as "Effectuer un débit exceptionnel sur un compte"
actor guichetier as "Guichetier"
actor chef as "Chef d'agence"
guichetier -> fonctionnalite
chef -> fonctionnalite
chef -|> guichetier
@enduml

PlantUML version 1.2022.4(Sat Apr 09 13:29:17 UTC 2022)
(GPL source distribution)
Java Runtime: OpenJDK Runtime Environment
JVM: OpenJDK 64-Bit Server VM
Default Encoding: UTF-8
Language: en
Country: US
--></g></svg>