<?xml version="1.0" encoding="UTF-8" standalone="no"?><svg xmlns="http://www.w3.org/2000/svg" xmlns:xlink="http://www.w3.org/1999/xlink" contentStyleType="text/css" height="141px" preserveAspectRatio="none" style="width:436px;height:141px;background:#FFFFFF;" version="1.1" viewBox="0 0 436 141" width="436px" zoomAndPan="magnify"><defs/><g><g id="elem_fonctionnalite"><ellipse cx="338.9431" cy="96.9886" fill="#F1F1F1" rx="91.4431" ry="20.6886" style="stroke:#181818;stroke-width:0.5;"/><text fill="#000000" font-family="sans-serif" font-size="14" lengthAdjust="spacing" textLength="145" x="266.4431" y="99.8353">Modifier prélèvement</text></g><!--MD5=[526518ddf9ffd3b9d06c429d9a70ec57]
entity guichetier--><g id="elem_guichetier"><ellipse cx="177" cy="74.8" fill="#F1F1F1" rx="16" ry="16" style="stroke:#181818;stroke-width:1.5;"/><path d="M177,94.8 C181,94.8 184,94.8 188,90.8 C196,90.8 204,98.8 204,106.8 L204,110.8 C204,114.8 200,118.8 196,118.8 L158,118.8 C154,118.8 150,114.8 150,110.8 L150,106.8 C150,98.8 158,90.8 166,90.8 C170,94.8 173,94.8 177,94.8 " fill="#F1F1F1" style="stroke:#181818;stroke-width:1.5;"/><text fill="#000000" font-family="sans-serif" font-size="14" lengthAdjust="spacing" textLength="71" x="141.5" y="133.2951">Guichetier</text></g><!--MD5=[ff8250f90b990ced6bd2564acf1d7da5]
entity chef--><g id="elem_chef"><ellipse cx="56" cy="74.8" fill="#F1F1F1" rx="16" ry="16" style="stroke:#181818;stroke-width:1.5;"/><path d="M56,94.8 C60,94.8 63,94.8 67,90.8 C75,90.8 83,98.8 83,106.8 L83,110.8 C83,114.8 79,118.8 75,118.8 L37,118.8 C33,118.8 29,114.8 29,110.8 L29,106.8 C29,98.8 37,90.8 45,90.8 C49,94.8 52,94.8 56,94.8 " fill="#F1F1F1" style="stroke:#181818;stroke-width:1.5;"/><text fill="#000000" font-family="sans-serif" font-size="14" lengthAdjust="spacing" textLength="100" x="6" y="133.2951">Chef d'agence</text></g><!--MD5=[115d4863d7018ededd69deb215d8578b]
link guichetier to fonctionnalite--><g id="link_guichetier_fonctionnalite"><path d="M212.75,96.8 C222.55,96.8 232.35,96.8 242.15,96.8 " fill="none" id="guichetier-to-fonctionnalite" style="stroke:#181818;stroke-width:1.0;"/><polygon fill="#181818" points="247.27,96.8,238.27,92.8,242.27,96.8,238.27,100.8,247.27,96.8" style="stroke:#181818;stroke-width:1.0;"/></g><!--MD5=[c6eb4afcfd67f5cfac6f524e8f815556]
link chef to fonctionnalite--><g id="link_chef_fonctionnalite"><path d="M93.32,57.23 C107.16,45.23 123.83,33.57 141.5,27.3 C201.48,6 271.82,46.36 310.28,73.99 " fill="none" id="chef-to-fonctionnalite" style="stroke:#181818;stroke-width:1.0;"/><polygon fill="#181818" points="314.35,76.96,309.4276,68.4294,310.3076,74.0174,304.7196,74.8974,314.35,76.96" style="stroke:#181818;stroke-width:1.0;"/></g><!--MD5=[410a58ce50ce8939e588c8b3132bd60e]
link chef to guichetier--><g id="link_chef_guichetier"><path d="M106.1,96.8 C111.14,96.8 116.18,96.8 121.21,96.8 " fill="none" id="chef-to-guichetier" style="stroke:#181818;stroke-width:1.0;"/><polygon fill="none" points="121.27,89.8,141.27,96.8,121.27,103.8,121.27,89.8" style="stroke:#181818;stroke-width:1.0;"/></g><!--MD5=[f5f91cadbbb7322a3f422eb74bc72eb1]
@startuml
skinparam actorStyle awesome

usecase fonctionnalite as "Modifier prélèvement"
actor guichetier as "Guichetier"
actor chef as "Chef d'agence"
guichetier -> fonctionnalite
chef -> fonctionnalite
chef -|> guichetier
@enduml

PlantUML version 1.2022.4(Sat Apr 09 13:29:17 UTC 2022)
(GPL source distribution)
Java Runtime: OpenJDK Runtime Environment
JVM: OpenJDK 64-Bit Server VM
Default Encoding: UTF-8
Language: en
Country: US
--></g></svg>