<?xml version="1.0" encoding="UTF-8" standalone="no"?><svg xmlns="http://www.w3.org/2000/svg" xmlns:xlink="http://www.w3.org/1999/xlink" contentStyleType="text/css" height="142px" preserveAspectRatio="none" style="width:452px;height:142px;background:#FFFFFF;" version="1.1" viewBox="0 0 452 142" width="452px" zoomAndPan="magnify"><defs/><g><g id="elem_fonctionnalite"><ellipse cx="347.0673" cy="97.4835" fill="#F1F1F1" rx="99.0673" ry="22.2135" style="stroke:#181818;stroke-width:0.5;"/><text fill="#000000" font-family="sans-serif" font-size="14" lengthAdjust="spacing" textLength="162" x="266.0673" y="100.3301">Supprimer prélèvement</text></g><!--MD5=[526518ddf9ffd3b9d06c429d9a70ec57]
entity guichetier--><g id="elem_guichetier"><ellipse cx="177" cy="75.27" fill="#F1F1F1" rx="16" ry="16" style="stroke:#181818;stroke-width:1.5;"/><path d="M177,95.27 C181,95.27 184,95.27 188,91.27 C196,91.27 204,99.27 204,107.27 L204,111.27 C204,115.27 200,119.27 196,119.27 L158,119.27 C154,119.27 150,115.27 150,111.27 L150,107.27 C150,99.27 158,91.27 166,91.27 C170,95.27 173,95.27 177,95.27 " fill="#F1F1F1" style="stroke:#181818;stroke-width:1.5;"/><text fill="#000000" font-family="sans-serif" font-size="14" lengthAdjust="spacing" textLength="71" x="141.5" y="133.7651">Guichetier</text></g><!--MD5=[ff8250f90b990ced6bd2564acf1d7da5]
entity chef--><g id="elem_chef"><ellipse cx="56" cy="75.27" fill="#F1F1F1" rx="16" ry="16" style="stroke:#181818;stroke-width:1.5;"/><path d="M56,95.27 C60,95.27 63,95.27 67,91.27 C75,91.27 83,99.27 83,107.27 L83,111.27 C83,115.27 79,119.27 75,119.27 L37,119.27 C33,119.27 29,115.27 29,111.27 L29,107.27 C29,99.27 37,91.27 45,91.27 C49,95.27 52,95.27 56,95.27 " fill="#F1F1F1" style="stroke:#181818;stroke-width:1.5;"/><text fill="#000000" font-family="sans-serif" font-size="14" lengthAdjust="spacing" textLength="100" x="6" y="133.7651">Chef d'agence</text></g><!--MD5=[115d4863d7018ededd69deb215d8578b]
link guichetier to fonctionnalite--><g id="link_guichetier_fonctionnalite"><path d="M212.53,97.27 C222.59,97.27 232.66,97.27 242.72,97.27 " fill="none" id="guichetier-to-fonctionnalite" style="stroke:#181818;stroke-width:1.0;"/><polygon fill="#181818" points="247.98,97.27,238.98,93.27,242.98,97.27,238.98,101.27,247.98,97.27" style="stroke:#181818;stroke-width:1.0;"/></g><!--MD5=[c6eb4afcfd67f5cfac6f524e8f815556]
link chef to fonctionnalite--><g id="link_chef_fonctionnalite"><path d="M93.32,57.7 C107.16,45.7 123.83,34.04 141.5,27.77 C202.79,6 274.92,45.24 315.36,73.07 " fill="none" id="chef-to-fonctionnalite" style="stroke:#181818;stroke-width:1.0;"/><polygon fill="#181818" points="319.65,76.07,314.553,67.6426,315.5478,73.2113,309.9791,74.2061,319.65,76.07" style="stroke:#181818;stroke-width:1.0;"/></g><!--MD5=[410a58ce50ce8939e588c8b3132bd60e]
link chef to guichetier--><g id="link_chef_guichetier"><path d="M106.1,97.27 C111.14,97.27 116.18,97.27 121.21,97.27 " fill="none" id="chef-to-guichetier" style="stroke:#181818;stroke-width:1.0;"/><polygon fill="none" points="121.27,90.27,141.27,97.27,121.27,104.27,121.27,90.27" style="stroke:#181818;stroke-width:1.0;"/></g><!--MD5=[6d8a30f62a0e42c68b369ec16c891088]
@startuml
skinparam actorStyle awesome

usecase fonctionnalite as "Supprimer prélèvement"
actor guichetier as "Guichetier"
actor chef as "Chef d'agence"
guichetier -> fonctionnalite
chef -> fonctionnalite
chef -|> guichetier
@enduml

PlantUML version 1.2022.4(Sat Apr 09 13:29:17 UTC 2022)
(GPL source distribution)
Java Runtime: OpenJDK Runtime Environment
JVM: OpenJDK 64-Bit Server VM
Default Encoding: UTF-8
Language: en
Country: US
--></g></svg>